IbarraReal-Bold.ufo
<glyph name="exclam" format="2">
  <advance width="249"/>
  <unicode hex="0021"/>
  <outline>
    <contour>
      <point x="94" y="239" type="line"/>
      <point x="151" y="239" type="line"/>
      <point x="200" y="658" type="line"/>
      <point x="45" y="658" type="line"/>
    </contour>
    <contour>
      <point x="126" y="-11" type="curve" smooth="yes"/>
      <point x="169" y="-11"/>
      <point x="204" y="24"/>
      <point x="204" y="67" type="curve" smooth="yes"/>
      <point x="204" y="111"/>
      <point x="169" y="146"/>
      <point x="126" y="146" type="curve" smooth="yes"/>
      <point x="83" y="146"/>
      <point x="48" y="111"/>
      <point x="48" y="67" type="curve" smooth="yes"/>
      <point x="48" y="24"/>
      <point x="83" y="-11"/>
    </contour>
  </outline>
</glyph>
<glyph name="comma" format="2">
  <advance width="285"/>
  <unicode hex="002C"/>
  <guideline x="176" y="164" angle="0"/>
  <outline>
    <contour>
      <point x="44" y="-164" type="line"/>
      <point x="164" y="-156"/>
      <point x="240" y="-70"/>
      <point x="240" y="24" type="curve" smooth="yes"/>
      <point x="240" y="90"/>
      <point x="197" y="137"/>
      <point x="132" y="158" type="curve"/>
      <point x="111" y="119"/>
      <point x="94" y="97"/>
      <point x="58" y="79" type="curve"/>
      <point x="58" y="48" type="line"/>
      <point x="110" y="40"/>
      <point x="139" y="10"/>
      <point x="139" y="-28" type="curve" smooth="yes"/>
      <point x="139" y="-81"/>
      <point x="101" y="-122"/>
      <point x="44" y="-131" type="curve"/>
    </contour>
  </outline>
</glyph>
<glyph name="zero" format="2">
  <advance width="605"/>
  <unicode hex="0030"/>
  <outline>
    <contour>
      <point x="302" y="-8" type="curve" smooth="yes"/>
      <point x="482" y="-8"/>
      <point x="560" y="151"/>
      <point x="560" y="342" type="curve" smooth="yes"/>
      <point x="560" y="533"/>
      <point x="482" y="683"/>
      <point x="302" y="683" type="curve" smooth="yes"/>
      <point x="123" y="683"/>
      <point x="45" y="533"/>
      <point x="45" y="342" type="curve" smooth="yes"/>
      <point x="45" y="151"/>
      <point x="123" y="-8"/>
    </contour>
    <contour>
      <point x="302" y="27" type="curve" smooth="yes"/>
      <point x="206" y="27"/>
      <point x="193" y="172"/>
      <point x="193" y="342" type="curve" smooth="yes"/>
      <point x="193" y="510"/>
      <point x="208" y="647"/>
      <point x="302" y="647" type="curve" smooth="yes"/>
      <point x="397" y="647"/>
      <point x="412" y="510"/>
      <point x="412" y="342" type="curve" smooth="yes"/>
      <point x="412" y="172"/>
      <point x="399" y="27"/>
    </contour>
  </outline>
</glyph>
<glyph name="two" format="2">
  <advance width="505"/>
  <unicode hex="0032"/>
  <outline>
    <contour>
      <point x="25" y="0" type="line"/>
      <point x="427" y="0" type="line"/>
      <point x="465" y="193" type="line"/>
      <point x="443" y="193" type="line"/>
      <point x="437" y="177" type="line" smooth="yes"/>
      <point x="423" y="140"/>
      <point x="410" y="119"/>
      <point x="375" y="119" type="curve" smooth="yes"/>
      <point x="169" y="119" type="line"/>
      <point x="250" y="202" type="line" smooth="yes"/>
      <point x="342" y="296"/>
      <point x="447" y="383"/>
      <point x="447" y="509" type="curve" smooth="yes"/>
      <point x="447" y="601"/>
      <point x="371" y="683"/>
      <point x="225" y="683" type="curve" smooth="yes"/>
      <point x="106" y="683"/>
      <point x="29" y="612"/>
      <point x="29" y="543" type="curve" smooth="yes"/>
      <point x="29" y="512"/>
      <point x="52" y="485"/>
      <point x="86" y="485" type="curve" smooth="yes"/>
      <point x="118" y="485"/>
      <point x="144" y="505"/>
      <point x="144" y="540" type="curve" smooth="yes"/>
      <point x="144" y="554"/>
      <point x="139" y="565"/>
      <point x="134" y="574" type="curve" smooth="yes"/>
      <point x="129" y="583"/>
      <point x="126" y="593"/>
      <point x="126" y="603" type="curve" smooth="yes"/>
      <point x="126" y="626"/>
      <point x="154" y="645"/>
      <point x="202" y="645" type="curve" smooth="yes"/>
      <point x="273" y="645"/>
      <point x="304" y="596"/>
      <point x="304" y="508" type="curve" smooth="yes"/>
      <point x="304" y="402"/>
      <point x="257" y="310"/>
      <point x="180" y="214" type="curve" smooth="yes"/>
      <point x="25" y="19" type="line"/>
    </contour>
  </outline>
</glyph>
<glyph name="three" format="2">
  <advance width="510"/>
  <unicode hex="0033"/>
  <outline>
    <contour>
      <point x="207" y="-8" type="curve" smooth="yes"/>
      <point x="383" y="-8"/>
      <point x="470" y="96"/>
      <point x="470" y="219" type="curve" smooth="yes"/>
      <point x="470" y="314"/>
      <point x="398" y="395"/>
      <point x="287" y="408" type="curve"/>
      <point x="287" y="410" type="line"/>
      <point x="366" y="440"/>
      <point x="409" y="487"/>
      <point x="409" y="552" type="curve" smooth="yes"/>
      <point x="409" y="641"/>
      <point x="324" y="683"/>
      <point x="214" y="683" type="curve" smooth="yes"/>
      <point x="103" y="683"/>
      <point x="35" y="617"/>
      <point x="35" y="562" type="curve" smooth="yes"/>
      <point x="35" y="525"/>
      <point x="57" y="504"/>
      <point x="88" y="504" type="curve" smooth="yes"/>
      <point x="119" y="504"/>
      <point x="146" y="521"/>
      <point x="146" y="551" type="curve" smooth="yes"/>
      <point x="146" y="570"/>
      <point x="140" y="579"/>
      <point x="135" y="588" type="curve" smooth="yes"/>
      <point x="130" y="596"/>
      <point x="126" y="603"/>
      <point x="126" y="617" type="curve" smooth="yes"/>
      <point x="126" y="630"/>
      <point x="145" y="647"/>
      <point x="189" y="647" type="curve" smooth="yes"/>
      <point x="252" y="647"/>
      <point x="275" y="605"/>
      <point x="275" y="547" type="curve" smooth="yes"/>
      <point x="275" y="453"/>
      <point x="200" y="393"/>
      <point x="147" y="365" type="curve" smooth="yes"/>
      <point x="126" y="354" type="line"/>
      <point x="139" y="332" type="line"/>
      <point x="156" y="337"/>
      <point x="174" y="344"/>
      <point x="193" y="350" type="curve"/>
      <point x="274" y="349"/>
      <point x="322" y="283"/>
      <point x="322" y="206" type="curve" smooth="yes"/>
      <point x="322" y="69"/>
      <point x="249" y="29"/>
      <point x="189" y="29" type="curve" smooth="yes"/>
      <point x="143" y="29"/>
      <point x="103" y="46"/>
      <point x="103" y="70" type="curve" smooth="yes"/>
      <point x="103" y="80"/>
      <point x="110" y="86"/>
      <point x="118" y="94" type="curve"/>
      <point x="128" y="103"/>
      <point x="139" y="115"/>
      <point x="139" y="139" type="curve" smooth="yes"/>
      <point x="139" y="166"/>
      <point x="117" y="188"/>
      <point x="79" y="188" type="curve" smooth="yes"/>
      <point x="49" y="188"/>
      <point x="20" y="167"/>
      <point x="20" y="125" type="curve" smooth="yes"/>
      <point x="20" y="42"/>
      <point x="106" y="-8"/>
    </contour>
  </outline>
</glyph>
<glyph name="D" format="2">
  <advance width="785"/>
  <unicode hex="0044"/>
  <anchor x="403" y="690" name="topcase"/>
  <outline>
    <contour>
      <point x="30" y="0" type="line"/>
      <point x="386" y="0" type="line" smooth="yes"/>
      <point x="595" y="0"/>
      <point x="745" y="147"/>
      <point x="745" y="341" type="curve" smooth="yes"/>
      <point x="745" y="524"/>
      <point x="588" y="673"/>
      <point x="379" y="673" type="curve" smooth="yes"/>
      <point x="30" y="673" type="line"/>
      <point x="30" y="651" type="line"/>
      <point x="81" y="640" type="line" smooth="yes"/>
      <point x="127" y="630"/>
      <point x="135" y="623"/>
      <point x="135" y="581" type="curve" smooth="yes"/>
      <point x="135" y="92" type="line" smooth="yes"/>
      <point x="135" y="50"/>
      <point x="127" y="43"/>
      <point x="81" y="33" type="curve" smooth="yes"/>
      <point x="30" y="22" type="line"/>
    </contour>
    <contour>
      <point x="365" y="33" type="curve" smooth="yes"/>
      <point x="306" y="33"/>
      <point x="275" y="53"/>
      <point x="275" y="92" type="curve" smooth="yes"/>
      <point x="275" y="642" type="line"/>
      <point x="365" y="642" type="line" smooth="yes"/>
      <point x="502" y="642"/>
      <point x="591" y="520"/>
      <point x="591" y="342" type="curve" smooth="yes"/>
      <point x="591" y="154"/>
      <point x="502" y="33"/>
    </contour>
  </outline>
</glyph>
<glyph name="G" format="2">
  <advance width="796"/>
  <unicode hex="0047"/>
  <anchor x="414" y="690" name="topcase"/>
  <outline>
    <contour>
      <point x="419" y="-11" type="curve" smooth="yes"/>
      <point x="484" y="-11"/>
      <point x="533" y="3"/>
      <point x="572" y="15" type="curve" smooth="yes"/>
      <point x="604" y="25"/>
      <point x="631" y="34"/>
      <point x="655" y="34" type="curve" smooth="yes"/>
      <point x="678" y="34"/>
      <point x="683" y="32"/>
      <point x="700" y="28" type="curve"/>
      <point x="703" y="30" type="line"/>
      <point x="703" y="219" type="line" smooth="yes"/>
      <point x="703" y="261"/>
      <point x="711" y="270"/>
      <point x="757" y="280" type="curve" smooth="yes"/>
      <point x="791" y="287" type="line"/>
      <point x="791" y="309" type="line"/>
      <point x="458" y="309" type="line"/>
      <point x="458" y="287" type="line"/>
      <point x="509" y="276" type="line" smooth="yes"/>
      <point x="555" y="266"/>
      <point x="563" y="259"/>
      <point x="563" y="217" type="curve" smooth="yes"/>
      <point x="563" y="67" type="line"/>
      <point x="517" y="27"/>
      <point x="465" y="24"/>
      <point x="434" y="24" type="curve" smooth="yes"/>
      <point x="257" y="24"/>
      <point x="193" y="163"/>
      <point x="193" y="335" type="curve" smooth="yes"/>
      <point x="193" y="509"/>
      <point x="277" y="649"/>
      <point x="421" y="649" type="curve" smooth="yes"/>
      <point x="534" y="649"/>
      <point x="616" y="584"/>
      <point x="658" y="468" type="curve"/>
      <point x="693" y="468" type="line"/>
      <point x="693" y="468"/>
      <point x="675" y="532"/>
      <point x="675" y="594" type="curve" smooth="yes"/>
      <point x="675" y="609"/>
      <point x="679" y="623"/>
      <point x="682" y="637" type="curve"/>
      <point x="678" y="640" type="line"/>
      <point x="666" y="637"/>
      <point x="657" y="635"/>
      <point x="643" y="635" type="curve" smooth="yes"/>
      <point x="582" y="635"/>
      <point x="556" y="683"/>
      <point x="415" y="683" type="curve" smooth="yes"/>
      <point x="206" y="683"/>
      <point x="40" y="537"/>
      <point x="40" y="335" type="curve" smooth="yes"/>
      <point x="40" y="114"/>
      <point x="227" y="-11"/>
    </contour>
  </outline>
</glyph>
<glyph name="J" format="2">
  <advance width="444"/>
  <unicode hex="004A"/>
  <anchor x="246" y="690" name="topcase"/>
  <outline>
    <contour>
      <point x="94" y="-203" type="curve" smooth="yes"/>
      <point x="187" y="-203"/>
      <point x="229" y="-165"/>
      <point x="261" y="-113" type="curve" smooth="yes"/>
      <point x="278" y="-88"/>
      <point x="288" y="-67"/>
      <point x="310" y="-67" type="curve" smooth="yes"/>
      <point x="319" y="-67" type="line"/>
      <point x="319" y="581" type="line" smooth="yes"/>
      <point x="319" y="623"/>
      <point x="327" y="630"/>
      <point x="373" y="640" type="curve" smooth="yes"/>
      <point x="424" y="651" type="line"/>
      <point x="424" y="673" type="line"/>
      <point x="74" y="673" type="line"/>
      <point x="74" y="651" type="line"/>
      <point x="125" y="640" type="line" smooth="yes"/>
      <point x="171" y="630"/>
      <point x="179" y="623"/>
      <point x="179" y="581" type="curve" smooth="yes"/>
      <point x="179" y="-52" type="line" smooth="yes"/>
      <point x="179" y="-137"/>
      <point x="140" y="-166"/>
      <point x="90" y="-166" type="curve" smooth="yes"/>
      <point x="66" y="-166"/>
      <point x="47" y="-156"/>
      <point x="47" y="-149" type="curve" smooth="yes"/>
      <point x="47" y="-146"/>
      <point x="50" y="-144"/>
      <point x="54" y="-144" type="curve" smooth="yes"/>
      <point x="87" y="-144"/>
      <point x="115" y="-112"/>
      <point x="115" y="-80" type="curve" smooth="yes"/>
      <point x="115" y="-44"/>
      <point x="94" y="-11"/>
      <point x="41" y="-11" type="curve" smooth="yes"/>
      <point x="4" y="-11"/>
      <point x="-35" y="-39"/>
      <point x="-35" y="-95" type="curve" smooth="yes"/>
      <point x="-35" y="-143"/>
      <point x="21" y="-203"/>
    </contour>
  </outline>
</glyph>
<glyph name="K" format="2">
  <advance width="769"/>
  <unicode hex="004B"/>
  <outline>
    <contour>
      <point x="30" y="0" type="line"/>
      <point x="380" y="0" type="line"/>
      <point x="380" y="22" type="line"/>
      <point x="329" y="33" type="line" smooth="yes"/>
      <point x="283" y="43"/>
      <point x="275" y="50"/>
      <point x="275" y="92" type="curve" smooth="yes"/>
      <point x="275" y="261" type="line"/>
      <point x="318" y="303" type="line"/>
      <point x="514" y="51" type="line"/>
      <point x="549" y="13"/>
      <point x="582" y="0"/>
      <point x="638" y="0" type="curve" smooth="yes"/>
      <point x="759" y="0" type="line"/>
      <point x="759" y="23" type="line"/>
      <point x="723" y="23"/>
      <point x="702" y="36"/>
      <point x="677" y="64" type="curve"/>
      <point x="419" y="400" type="line"/>
      <point x="607" y="582" type="line" smooth="yes"/>
      <point x="650" y="624"/>
      <point x="674" y="635"/>
      <point x="713" y="644" type="curve" smooth="yes"/>
      <point x="743" y="651" type="line"/>
      <point x="743" y="673" type="line"/>
      <point x="474" y="673" type="line"/>
      <point x="474" y="651" type="line"/>
      <point x="553" y="636" type="line" smooth="yes"/>
      <point x="583" y="631"/>
      <point x="581" y="610"/>
      <point x="567" y="597" type="curve" smooth="yes"/>
      <point x="275" y="315" type="line"/>
      <point x="275" y="581" type="line" smooth="yes"/>
      <point x="275" y="623"/>
      <point x="283" y="630"/>
      <point x="329" y="640" type="curve" smooth="yes"/>
      <point x="380" y="651" type="line"/>
      <point x="380" y="673" type="line"/>
      <point x="30" y="673" type="line"/>
      <point x="30" y="651" type="line"/>
      <point x="81" y="640" type="line" smooth="yes"/>
      <point x="127" y="630"/>
      <point x="135" y="623"/>
      <point x="135" y="581" type="curve" smooth="yes"/>
      <point x="135" y="92" type="line" smooth="yes"/>
      <point x="135" y="50"/>
      <point x="127" y="43"/>
      <point x="81" y="33" type="curve" smooth="yes"/>
      <point x="30" y="22" type="line"/>
    </contour>
  </outline>
</glyph>
<glyph name="L" format="2">
  <advance width="701"/>
  <unicode hex="004C"/>
  <guideline x="210" y="92" angle="0"/>
  <anchor x="210" y="690" name="topcase"/>
  <outline>
    <contour>
      <point x="30" y="0" type="line"/>
      <point x="667" y="0" type="line"/>
      <point x="667" y="61"/>
      <point x="682" y="138"/>
      <point x="696" y="197" type="curve"/>
      <point x="674" y="197" type="line"/>
      <point x="627" y="120" type="line" smooth="yes"/>
      <point x="592" y="62"/>
      <point x="546" y="33"/>
      <point x="470" y="33" type="curve" smooth="yes"/>
      <point x="344" y="33" type="line" smooth="yes"/>
      <point x="291" y="33"/>
      <point x="275" y="56"/>
      <point x="275" y="92" type="curve" smooth="yes"/>
      <point x="275" y="581" type="line" smooth="yes"/>
      <point x="275" y="623"/>
      <point x="283" y="630"/>
      <point x="329" y="640" type="curve" smooth="yes"/>
      <point x="380" y="651" type="line"/>
      <point x="380" y="673" type="line"/>
      <point x="30" y="673" type="line"/>
      <point x="30" y="651" type="line"/>
      <point x="81" y="640" type="line" smooth="yes"/>
      <point x="127" y="630"/>
      <point x="135" y="623"/>
      <point x="135" y="581" type="curve" smooth="yes"/>
      <point x="135" y="92" type="line" smooth="yes"/>
      <point x="135" y="50"/>
      <point x="127" y="43"/>
      <point x="81" y="33" type="curve" smooth="yes"/>
      <point x="30" y="22" type="line"/>
    </contour>
  </outline>
</glyph>
<glyph name="U" format="2">
  <advance width="765"/>
  <unicode hex="0055"/>
  <anchor x="383" y="-52" name="ogonek"/>
  <anchor x="419" y="690" name="topcase"/>
  <outline>
    <contour>
      <point x="374" y="-11" type="curve" smooth="yes"/>
      <point x="495" y="-11"/>
      <point x="543" y="33"/>
      <point x="575" y="67" type="curve" smooth="yes"/>
      <point x="597" y="90"/>
      <point x="612" y="109"/>
      <point x="633" y="109" type="curve"/>
      <point x="633" y="581" type="line" smooth="yes"/>
      <point x="633" y="617"/>
      <point x="651" y="630"/>
      <point x="687" y="638" type="curve" smooth="yes"/>
      <point x="745" y="651" type="line"/>
      <point x="745" y="673" type="line"/>
      <point x="470" y="673" type="line"/>
      <point x="470" y="651" type="line"/>
      <point x="543" y="636" type="line" smooth="yes"/>
      <point x="579" y="629"/>
      <point x="597" y="614"/>
      <point x="597" y="581" type="curve" smooth="yes"/>
      <point x="597" y="216" type="line" smooth="yes"/>
      <point x="597" y="124"/>
      <point x="528" y="57"/>
      <point x="431" y="57" type="curve" smooth="yes"/>
      <point x="318" y="57"/>
      <point x="260" y="120"/>
      <point x="260" y="220" type="curve" smooth="yes"/>
      <point x="260" y="581" type="line" smooth="yes"/>
      <point x="260" y="623"/>
      <point x="268" y="630"/>
      <point x="314" y="640" type="curve" smooth="yes"/>
      <point x="365" y="651" type="line"/>
      <point x="365" y="673" type="line"/>
      <point x="15" y="673" type="line"/>
      <point x="15" y="651" type="line"/>
      <point x="66" y="640" type="line" smooth="yes"/>
      <point x="112" y="630"/>
      <point x="120" y="623"/>
      <point x="120" y="581" type="curve" smooth="yes"/>
      <point x="120" y="215" type="line" smooth="yes"/>
      <point x="120" y="82"/>
      <point x="245" y="-11"/>
    </contour>
  </outline>
</glyph>
<glyph name="bracketleft" format="2">
  <advance width="260"/>
  <unicode hex="005B"/>
  <outline>
    <contour>
      <point x="30" y="-214" type="line"/>
      <point x="235" y="-214" type="line"/>
      <point x="235" y="-164" type="line"/>
      <point x="125" y="-164" type="line"/>
      <point x="125" y="694" type="line"/>
      <point x="235" y="694" type="line"/>
      <point x="235" y="744" type="line"/>
      <point x="30" y="744" type="line"/>
    </contour>
  </outline>
</glyph>
<glyph name="k" format="2">
  <advance width="579"/>
  <unicode hex="006B"/>
  <outline>
    <contour>
      <point x="30" y="0" type="line"/>
      <point x="265" y="0" type="line"/>
      <point x="265" y="17" type="line"/>
      <point x="233" y="29" type="line" smooth="yes"/>
      <point x="222" y="33"/>
      <point x="206" y="43"/>
      <point x="206" y="62" type="curve" smooth="yes"/>
      <point x="206" y="618" type="line" smooth="yes"/>
      <point x="206" y="654"/>
      <point x="211" y="687"/>
      <point x="220" y="702" type="curve"/>
      <point x="210" y="710" type="line"/>
      <point x="152" y="689"/>
      <point x="106" y="682"/>
      <point x="30" y="672" type="curve"/>
      <point x="30" y="654" type="line"/>
      <point x="62" y="646" type="line" smooth="yes"/>
      <point x="79" y="642"/>
      <point x="89" y="636"/>
      <point x="89" y="608" type="curve" smooth="yes"/>
      <point x="89" y="69" type="line" smooth="yes"/>
      <point x="89" y="50"/>
      <point x="80" y="36"/>
      <point x="62" y="29" type="curve" smooth="yes"/>
      <point x="30" y="17" type="line"/>
    </contour>
    <contour>
      <point x="312" y="0" type="line"/>
      <point x="569" y="0" type="line"/>
      <point x="569" y="17" type="line"/>
      <point x="548" y="22" type="line" smooth="yes"/>
      <point x="521" y="29"/>
      <point x="510" y="39"/>
      <point x="498" y="57" type="curve" smooth="yes"/>
      <point x="334" y="299" type="line"/>
      <point x="243" y="230" type="line"/>
      <point x="352" y="66" type="line" smooth="yes"/>
      <point x="368" y="42"/>
      <point x="355" y="28"/>
      <point x="333" y="22" type="curve" smooth="yes"/>
      <point x="312" y="17" type="line"/>
    </contour>
    <contour>
      <point x="197" y="146" type="line"/>
      <point x="462" y="396" type="line" smooth="yes"/>
      <point x="472" y="405"/>
      <point x="478" y="409"/>
      <point x="495" y="414" type="curve" smooth="yes"/>
      <point x="545" y="425" type="line"/>
      <point x="545" y="442" type="line"/>
      <point x="342" y="442" type="line"/>
      <point x="342" y="425" type="line"/>
      <point x="388" y="416" type="line" smooth="yes"/>
      <point x="405" y="413"/>
      <point x="409" y="401"/>
      <point x="397" y="389" type="curve" smooth="yes"/>
      <point x="203" y="203" type="line"/>
    </contour>
  </outline>
</glyph>
<glyph name="l" format="2">
  <advance width="280"/>
  <unicode hex="006C"/>
  <outline>
    <contour>
      <point x="30" y="0" type="line"/>
      <point x="265" y="0" type="line"/>
      <point x="265" y="17" type="line"/>
      <point x="233" y="29" type="line" smooth="yes"/>
      <point x="222" y="33"/>
      <point x="206" y="43"/>
      <point x="206" y="62" type="curve" smooth="yes"/>
      <point x="206" y="618" type="line" smooth="yes"/>
      <point x="206" y="654"/>
      <point x="211" y="687"/>
      <point x="220" y="702" type="curve"/>
      <point x="210" y="710" type="line"/>
      <point x="152" y="689"/>
      <point x="106" y="682"/>
      <point x="30" y="672" type="curve"/>
      <point x="30" y="654" type="line"/>
      <point x="62" y="646" type="line" smooth="yes"/>
      <point x="79" y="642"/>
      <point x="89" y="636"/>
      <point x="89" y="608" type="curve" smooth="yes"/>
      <point x="89" y="69" type="line" smooth="yes"/>
      <point x="89" y="50"/>
      <point x="80" y="36"/>
      <point x="62" y="29" type="curve" smooth="yes"/>
      <point x="30" y="17" type="line"/>
    </contour>
  </outline>
</glyph>
<glyph name="m" format="2">
  <advance width="829"/>
  <unicode hex="006D"/>
  <outline>
    <contour>
      <point x="584" y="0" type="line"/>
      <point x="819" y="0" type="line"/>
      <point x="819" y="17" type="line"/>
      <point x="787" y="29" type="line" smooth="yes"/>
      <point x="776" y="33"/>
      <point x="760" y="43"/>
      <point x="760" y="62" type="curve" smooth="yes"/>
      <point x="760" y="312" type="line" smooth="yes"/>
      <point x="760" y="402"/>
      <point x="708" y="451"/>
      <point x="620" y="451" type="curve" smooth="yes"/>
      <point x="615" y="451"/>
      <point x="609" y="449"/>
      <point x="603" y="445" type="curve" smooth="yes"/>
      <point x="566" y="422"/>
      <point x="519" y="398"/>
      <point x="482" y="380" type="curve"/>
      <point x="468" y="380" type="line"/>
      <point x="483" y="277" type="line"/>
      <point x="483" y="332"/>
      <point x="513" y="369"/>
      <point x="564" y="369" type="curve" smooth="yes"/>
      <point x="614" y="369"/>
      <point x="643" y="336"/>
      <point x="643" y="277" type="curve" smooth="yes"/>
      <point x="643" y="69" type="line" smooth="yes"/>
      <point x="643" y="50"/>
      <point x="634" y="36"/>
      <point x="616" y="29" type="curve" smooth="yes"/>
      <point x="584" y="17" type="line"/>
    </contour>
    <contour>
      <point x="30" y="0" type="line"/>
      <point x="265" y="0" type="line"/>
      <point x="265" y="17" type="line"/>
      <point x="233" y="29" type="line" smooth="yes"/>
      <point x="222" y="33"/>
      <point x="206" y="43"/>
      <point x="206" y="62" type="curve" smooth="yes"/>
      <point x="206" y="333" type="line"/>
      <point x="199" y="355" type="line"/>
      <point x="199" y="365" type="line" smooth="yes"/>
      <point x="199" y="401"/>
      <point x="204" y="434"/>
      <point x="213" y="449" type="curve"/>
      <point x="203" y="457" type="line"/>
      <point x="145" y="436"/>
      <point x="107" y="431"/>
      <point x="30" y="419" type="curve"/>
      <point x="30" y="401" type="line"/>
      <point x="62" y="393" type="line" smooth="yes"/>
      <point x="79" y="389"/>
      <point x="89" y="383"/>
      <point x="89" y="355" type="curve" smooth="yes"/>
      <point x="89" y="69" type="line" smooth="yes"/>
      <point x="89" y="50"/>
      <point x="80" y="36"/>
      <point x="62" y="29" type="curve" smooth="yes"/>
      <point x="30" y="17" type="line"/>
    </contour>
    <contour>
      <point x="307" y="0" type="line"/>
      <point x="542" y="0" type="line"/>
      <point x="542" y="17" type="line"/>
      <point x="510" y="29" type="line" smooth="yes"/>
      <point x="499" y="33"/>
      <point x="483" y="43"/>
      <point x="483" y="62" type="curve" smooth="yes"/>
      <point x="483" y="312" type="line" smooth="yes"/>
      <point x="483" y="402"/>
      <point x="431" y="451"/>
      <point x="343" y="451" type="curve" smooth="yes"/>
      <point x="338" y="451"/>
      <point x="332" y="449"/>
      <point x="326" y="445" type="curve" smooth="yes"/>
      <point x="289" y="422"/>
      <point x="242" y="398"/>
      <point x="205" y="380" type="curve"/>
      <point x="191" y="380" type="line"/>
      <point x="206" y="277" type="line"/>
      <point x="206" y="332"/>
      <point x="236" y="369"/>
      <point x="287" y="369" type="curve" smooth="yes"/>
      <point x="337" y="369"/>
      <point x="366" y="336"/>
      <point x="366" y="277" type="curve" smooth="yes"/>
      <point x="366" y="69" type="line" smooth="yes"/>
      <point x="366" y="50"/>
      <point x="357" y="36"/>
      <point x="339" y="29" type="curve" smooth="yes"/>
      <point x="307" y="17" type="line"/>
    </contour>
  </outline>
</glyph>
<glyph name="v" format="2">
  <advance width="522"/>
  <unicode hex="0076"/>
  <outline>
    <contour>
      <point x="245" y="-8" type="line"/>
      <point x="275" y="-8" type="line"/>
      <point x="447" y="391" type="line" smooth="yes"/>
      <point x="452" y="403"/>
      <point x="459" y="408"/>
      <point x="476" y="413" type="curve" smooth="yes"/>
      <point x="517" y="425" type="line"/>
      <point x="517" y="442" type="line"/>
      <point x="333" y="442" type="line"/>
      <point x="333" y="425" type="line"/>
      <point x="378" y="417" type="line" smooth="yes"/>
      <point x="400" y="413"/>
      <point x="404" y="404"/>
      <point x="396" y="385" type="curve" smooth="yes"/>
      <point x="287" y="111" type="line"/>
      <point x="314" y="111" type="line"/>
      <point x="202" y="376" type="line" smooth="yes"/>
      <point x="191" y="403"/>
      <point x="209" y="414"/>
      <point x="231" y="420" type="curve" smooth="yes"/>
      <point x="252" y="425" type="line"/>
      <point x="252" y="442" type="line"/>
      <point x="5" y="442" type="line"/>
      <point x="5" y="425" type="line"/>
      <point x="36" y="418" type="line" smooth="yes"/>
      <point x="52" y="414"/>
      <point x="61" y="409"/>
      <point x="66" y="397" type="curve" smooth="yes"/>
    </contour>
  </outline>
</glyph>
<glyph name="z" format="2">
  <advance width="425"/>
  <unicode hex="007A"/>
  <anchor x="227" y="470" name="top"/>
  <outline>
    <contour>
      <point x="10" y="0" type="line"/>
      <point x="400" y="0" type="line"/>
      <point x="400" y="9" type="line" smooth="yes"/>
      <point x="400" y="63"/>
      <point x="404" y="100"/>
      <point x="415" y="152" type="curve"/>
      <point x="391" y="152" type="line"/>
      <point x="375" y="88"/>
      <point x="338" y="30"/>
      <point x="258" y="30" type="curve" smooth="yes"/>
      <point x="159" y="30" type="line"/>
      <point x="409" y="435" type="line"/>
      <point x="409" y="442" type="line"/>
      <point x="44" y="442" type="line"/>
      <point x="47" y="426"/>
      <point x="49" y="410"/>
      <point x="49" y="392" type="curve" smooth="yes"/>
      <point x="49" y="357"/>
      <point x="43" y="320"/>
      <point x="35" y="293" type="curve"/>
      <point x="62" y="293" type="line"/>
      <point x="75" y="368"/>
      <point x="116" y="412"/>
      <point x="187" y="412" type="curve" smooth="yes"/>
      <point x="258" y="412" type="line"/>
      <point x="10" y="6" type="line"/>
    </contour>
  </outline>
</glyph>
<glyph name="asciitilde" format="2">
  <advance width="570"/>
  <unicode hex="007E"/>
  <outline>
    <contour>
      <point x="107" y="276" type="line"/>
      <point x="120" y="316"/>
      <point x="141" y="329"/>
      <point x="177" y="329" type="curve" smooth="yes"/>
      <point x="207" y="329"/>
      <point x="244" y="316"/>
      <point x="281" y="303" type="curve" smooth="yes"/>
      <point x="319" y="290"/>
      <point x="361" y="277"/>
      <point x="400" y="277" type="curve" smooth="yes"/>
      <point x="447" y="277"/>
      <point x="490" y="303"/>
      <point x="504" y="373" type="curve"/>
      <point x="463" y="382" type="line"/>
      <point x="450" y="342"/>
      <point x="429" y="329"/>
      <point x="393" y="329" type="curve" smooth="yes"/>
      <point x="363" y="329"/>
      <point x="326" y="342"/>
      <point x="289" y="355" type="curve" smooth="yes"/>
      <point x="251" y="368"/>
      <point x="209" y="382"/>
      <point x="170" y="382" type="curve" smooth="yes"/>
      <point x="123" y="382"/>
      <point x="80" y="355"/>
      <point x="66" y="285" type="curve"/>
    </contour>
  </outline>
</glyph>
<glyph name="threesuperior" format="2">
  <advance width="307"/>
  <unicode hex="00B3"/>
  <outline>
    <contour>
      <point x="131" y="344" type="curve" smooth="yes"/>
      <point x="238" y="344"/>
      <point x="282" y="395"/>
      <point x="282" y="455" type="curve" smooth="yes"/>
      <point x="282" y="502"/>
      <point x="247" y="542"/>
      <point x="180" y="548" type="curve"/>
      <point x="180" y="549" type="line"/>
      <point x="228" y="564"/>
      <point x="251" y="587"/>
      <point x="251" y="619" type="curve" smooth="yes"/>
      <point x="251" y="662"/>
      <point x="203" y="686"/>
      <point x="136" y="686" type="curve" smooth="yes"/>
      <point x="68" y="686"/>
      <point x="27" y="653"/>
      <point x="27" y="622" type="curve" smooth="yes"/>
      <point x="27" y="599"/>
      <point x="41" y="582"/>
      <point x="59" y="582" type="curve" smooth="yes"/>
      <point x="78" y="582"/>
      <point x="95" y="593"/>
      <point x="95" y="608" type="curve" smooth="yes"/>
      <point x="95" y="627"/>
      <point x="82" y="628"/>
      <point x="82" y="643" type="curve" smooth="yes"/>
      <point x="82" y="652"/>
      <point x="94" y="662"/>
      <point x="120" y="662" type="curve" smooth="yes"/>
      <point x="156" y="662"/>
      <point x="172" y="641"/>
      <point x="172" y="616" type="curve" smooth="yes"/>
      <point x="172" y="570"/>
      <point x="131" y="544"/>
      <point x="94" y="530" type="curve" smooth="yes"/>
      <point x="81" y="525" type="line"/>
      <point x="91" y="506" type="line"/>
      <point x="102" y="508"/>
      <point x="112" y="512"/>
      <point x="124" y="515" type="curve"/>
      <point x="173" y="514"/>
      <point x="191" y="487"/>
      <point x="191" y="449" type="curve" smooth="yes"/>
      <point x="191" y="399"/>
      <point x="164" y="369"/>
      <point x="120" y="369" type="curve" smooth="yes"/>
      <point x="93" y="369"/>
      <point x="70" y="377"/>
      <point x="70" y="389" type="curve" smooth="yes"/>
      <point x="70" y="401"/>
      <point x="90" y="401"/>
      <point x="90" y="422" type="curve" smooth="yes"/>
      <point x="90" y="435"/>
      <point x="80" y="453"/>
      <point x="53" y="453" type="curve" smooth="yes"/>
      <point x="32" y="453"/>
      <point x="18" y="435"/>
      <point x="18" y="413" type="curve" smooth="yes"/>
      <point x="18" y="367"/>
      <point x="70" y="344"/>
    </contour>
  </outline>
</glyph>
<glyph name="micro" format="2">
  <advance width="575"/>
  <unicode hex="00B5"/>
  <outline>
    <contour>
      <point x="68" y="-260" type="line"/>
      <point x="188" y="-242" type="line"/>
      <point x="175" y="-5" type="line"/>
      <point x="187" y="-7"/>
      <point x="200" y="-8"/>
      <point x="213" y="-8" type="curve" smooth="yes"/>
      <point x="217" y="-8"/>
      <point x="223" y="-6"/>
      <point x="228" y="-3" type="curve" smooth="yes"/>
      <point x="265" y="20"/>
      <point x="313" y="47"/>
      <point x="355" y="63" type="curve"/>
      <point x="369" y="63" type="line"/>
      <point x="354" y="168" type="line"/>
      <point x="354" y="113"/>
      <point x="323" y="76"/>
      <point x="269" y="76" type="curve" smooth="yes"/>
      <point x="216" y="76"/>
      <point x="186" y="108"/>
      <point x="186" y="167" type="curve" smooth="yes"/>
      <point x="186" y="367" type="line" smooth="yes"/>
      <point x="186" y="403"/>
      <point x="191" y="436"/>
      <point x="200" y="451" type="curve"/>
      <point x="190" y="459" type="line"/>
      <point x="126" y="444"/>
      <point x="90" y="439"/>
      <point x="10" y="433" type="curve"/>
      <point x="10" y="415" type="line"/>
      <point x="42" y="407" type="line" smooth="yes"/>
      <point x="59" y="403"/>
      <point x="69" y="396"/>
      <point x="69" y="368" type="curve" smooth="yes"/>
    </contour>
    <contour>
      <point x="383" y="-8" type="line"/>
      <point x="441" y="-1"/>
      <point x="488" y="7"/>
      <point x="545" y="9" type="curve"/>
      <point x="545" y="35" type="line"/>
      <point x="492" y="35"/>
      <point x="471" y="52"/>
      <point x="471" y="96" type="curve" smooth="yes"/>
      <point x="471" y="367" type="line" smooth="yes"/>
      <point x="471" y="403"/>
      <point x="476" y="436"/>
      <point x="485" y="451" type="curve"/>
      <point x="475" y="459" type="line"/>
      <point x="411" y="444"/>
      <point x="375" y="439"/>
      <point x="295" y="433" type="curve"/>
      <point x="295" y="415" type="line"/>
      <point x="327" y="407" type="line" smooth="yes"/>
      <point x="344" y="403"/>
      <point x="354" y="396"/>
      <point x="354" y="368" type="curve" smooth="yes"/>
      <point x="354" y="110" type="line"/>
      <point x="361" y="78" type="line"/>
      <point x="373" y="-3" type="line"/>
    </contour>
  </outline>
</glyph>
<glyph name="germandbls" format="2">
  <advance width="627"/>
  <unicode hex="00DF"/>
  <outline>
    <contour>
      <point x="434" y="-8" type="curve" smooth="yes"/>
      <point x="548" y="-8"/>
      <point x="602" y="62"/>
      <point x="602" y="131" type="curve" smooth="yes"/>
      <point x="602" y="224"/>
      <point x="537" y="259"/>
      <point x="477" y="289" type="curve" smooth="yes"/>
      <point x="425" y="315"/>
      <point x="376" y="338"/>
      <point x="376" y="390" type="curve" smooth="yes"/>
      <point x="376" y="437"/>
      <point x="408" y="456"/>
      <point x="441" y="475" type="curve" smooth="yes"/>
      <point x="478" y="496"/>
      <point x="518" y="518"/>
      <point x="518" y="583" type="curve" smooth="yes"/>
      <point x="518" y="650"/>
      <point x="441" y="711"/>
      <point x="324" y="711" type="curve" smooth="yes"/>
      <point x="158" y="711"/>
      <point x="89" y="650"/>
      <point x="89" y="489" type="curve" smooth="yes"/>
      <point x="89" y="442" type="line"/>
      <point x="25" y="442" type="line"/>
      <point x="25" y="409" type="line"/>
      <point x="89" y="409" type="line"/>
      <point x="89" y="69" type="line" smooth="yes"/>
      <point x="89" y="48"/>
      <point x="82" y="37"/>
      <point x="62" y="29" type="curve" smooth="yes"/>
      <point x="30" y="17" type="line"/>
      <point x="30" y="0" type="line"/>
      <point x="207" y="0" type="line"/>
      <point x="207" y="484" type="line" smooth="yes"/>
      <point x="207" y="630"/>
      <point x="234" y="684"/>
      <point x="311" y="684" type="curve" smooth="yes"/>
      <point x="374" y="684"/>
      <point x="401" y="645"/>
      <point x="401" y="572" type="curve" smooth="yes"/>
      <point x="401" y="506"/>
      <point x="371" y="474"/>
      <point x="342" y="448" type="curve" smooth="yes"/>
      <point x="313" y="421"/>
      <point x="284" y="399"/>
      <point x="284" y="352" type="curve" smooth="yes"/>
      <point x="284" y="262"/>
      <point x="345" y="226"/>
      <point x="403" y="195" type="curve" smooth="yes"/>
      <point x="456" y="167"/>
      <point x="507" y="143"/>
      <point x="507" y="87" type="curve" smooth="yes"/>
      <point x="507" y="47"/>
      <point x="480" y="23"/>
      <point x="440" y="23" type="curve" smooth="yes"/>
      <point x="369" y="23"/>
      <point x="321" y="89"/>
      <point x="309" y="168" type="curve"/>
      <point x="271" y="168" type="line"/>
      <point x="281" y="126"/>
      <point x="279" y="73"/>
      <point x="276" y="34" type="curve"/>
      <point x="307" y="17"/>
      <point x="368" y="-8"/>
    </contour>
  </outline>
</glyph>
<glyph name="divide" format="2">
  <advance width="570"/>
  <unicode hex="00F7"/>
  <outline>
    <contour>
      <point x="285" y="87" type="curve" smooth="yes"/>
      <point x="331" y="87"/>
      <point x="368" y="124"/>
      <point x="368" y="170" type="curve" smooth="yes"/>
      <point x="368" y="216"/>
      <point x="331" y="254"/>
      <point x="285" y="254" type="curve" smooth="yes"/>
      <point x="239" y="254"/>
      <point x="202" y="216"/>
      <point x="202" y="170" type="curve" smooth="yes"/>
      <point x="202" y="124"/>
      <point x="239" y="87"/>
    </contour>
    <contour>
      <point x="285" y="411" type="curve" smooth="yes"/>
      <point x="331" y="411"/>
      <point x="368" y="448"/>
      <point x="368" y="494" type="curve" smooth="yes"/>
      <point x="368" y="540"/>
      <point x="331" y="578"/>
      <point x="285" y="578" type="curve" smooth="yes"/>
      <point x="239" y="578"/>
      <point x="202" y="540"/>
      <point x="202" y="494" type="curve" smooth="yes"/>
      <point x="202" y="448"/>
      <point x="239" y="411"/>
    </contour>
    <component base="minus"/>
  </outline>
</glyph>
<glyph name="Lslash" format="2">
  <advance width="701"/>
  <unicode hex="0141"/>
  <guideline x="30" y="91" angle="90"/>
  <outline>
    <contour>
      <point x="30" y="202" type="line"/>
      <point x="563" y="371" type="line"/>
      <point x="563" y="428" type="line"/>
      <point x="30" y="259" type="line"/>
    </contour>
    <component base="L"/>
  </outline>
</glyph>
<glyph name="acutecomb" format="2">
  <unicode hex="0301"/>
  <anchor x="269" y="470" name="_top"/>
  <outline>
    <contour>
      <point x="204" y="541" type="line"/>
      <point x="359" y="653" type="line" smooth="yes"/>
      <point x="376" y="665"/>
      <point x="383" y="681"/>
      <point x="383" y="696" type="curve" smooth="yes"/>
      <point x="383" y="718"/>
      <point x="366" y="738"/>
      <point x="339" y="738" type="curve" smooth="yes"/>
      <point x="320" y="738"/>
      <point x="307" y="729"/>
      <point x="295" y="712" type="curve" smooth="yes"/>
      <point x="186" y="557" type="line"/>
    </contour>
  </outline>
</glyph>
<glyph name="brevecomb" format="2">
  <unicode hex="0306"/>
  <guideline x="284" y="576" angle="90"/>
  <anchor x="285" y="470" name="_top"/>
  <outline>
    <contour>
      <point x="285" y="612" type="curve" smooth="yes"/>
      <point x="348" y="612"/>
      <point x="405" y="661"/>
      <point x="405" y="718" type="curve"/>
      <point x="441" y="718" type="line"/>
      <point x="441" y="603"/>
      <point x="377" y="531"/>
      <point x="285" y="531" type="curve" smooth="yes"/>
      <point x="193" y="531"/>
      <point x="129" y="603"/>
      <point x="129" y="718" type="curve"/>
      <point x="165" y="718" type="line"/>
      <point x="165" y="661"/>
      <point x="222" y="612"/>
    </contour>
  </outline>
</glyph>
<glyph name="ogonekcomb" format="2">
  <unicode hex="0328"/>
  <anchor x="258" y="-50" name="_ogonek"/>
  <outline>
    <contour>
      <point x="285" y="-225" type="curve" smooth="yes"/>
      <point x="323" y="-225"/>
      <point x="371" y="-197"/>
      <point x="409" y="-156" type="curve"/>
      <point x="390" y="-134" type="line"/>
      <point x="367" y="-151"/>
      <point x="344" y="-163"/>
      <point x="320" y="-163" type="curve" smooth="yes"/>
      <point x="292" y="-163"/>
      <point x="270" y="-144"/>
      <point x="270" y="-94" type="curve" smooth="yes"/>
      <point x="270" y="-44"/>
      <point x="316" y="-9"/>
      <point x="351" y="4" type="curve"/>
      <point x="311" y="11" type="line"/>
      <point x="249" y="-8"/>
      <point x="159" y="-52"/>
      <point x="159" y="-103" type="curve" smooth="yes"/>
      <point x="159" y="-166"/>
      <point x="219" y="-225"/>
    </contour>
  </outline>
</glyph>
<glyph name="daggerdbl" format="2">
  <advance width="542"/>
  <unicode hex="2021"/>
  <outline>
    <contour>
      <point x="271" y="-213" type="curve" smooth="yes"/>
      <point x="299" y="-213"/>
      <point x="329" y="-199"/>
      <point x="329" y="-161" type="curve" smooth="yes"/>
      <point x="329" y="-131"/>
      <point x="317" y="-99"/>
      <point x="307" y="-66" type="curve" smooth="yes"/>
      <point x="296" y="-29"/>
      <point x="283" y="8"/>
      <point x="283" y="53" type="curve"/>
      <point x="283" y="67" type="line"/>
      <point x="290" y="67" type="line" smooth="yes"/>
      <point x="331" y="67"/>
      <point x="362" y="54"/>
      <point x="393" y="44" type="curve"/>
      <point x="421" y="34"/>
      <point x="446" y="23"/>
      <point x="472" y="23" type="curve" smooth="yes"/>
      <point x="505" y="23"/>
      <point x="517" y="61"/>
      <point x="517" y="78" type="curve" smooth="yes"/>
      <point x="517" y="95"/>
      <point x="505" y="134"/>
      <point x="472" y="134" type="curve" smooth="yes"/>
      <point x="446" y="134"/>
      <point x="421" y="122"/>
      <point x="393" y="112" type="curve" smooth="yes"/>
      <point x="362" y="101"/>
      <point x="331" y="89"/>
      <point x="290" y="89" type="curve" smooth="yes"/>
      <point x="283" y="89" type="line"/>
      <point x="284" y="184"/>
      <point x="339" y="239"/>
      <point x="356" y="253" type="curve"/>
      <point x="339" y="267"/>
      <point x="284" y="322"/>
      <point x="283" y="417" type="curve"/>
      <point x="291" y="417" type="line" smooth="yes"/>
      <point x="331" y="417"/>
      <point x="362" y="405"/>
      <point x="393" y="394" type="curve" smooth="yes"/>
      <point x="421" y="384"/>
      <point x="446" y="372"/>
      <point x="472" y="372" type="curve" smooth="yes"/>
      <point x="505" y="372"/>
      <point x="517" y="411"/>
      <point x="517" y="428" type="curve" smooth="yes"/>
      <point x="517" y="445"/>
      <point x="505" y="483"/>
      <point x="472" y="483" type="curve" smooth="yes"/>
      <point x="446" y="483"/>
      <point x="421" y="472"/>
      <point x="393" y="462" type="curve" smooth="yes"/>
      <point x="362" y="452"/>
      <point x="332" y="439"/>
      <point x="291" y="439" type="curve" smooth="yes"/>
      <point x="283" y="439" type="line"/>
      <point x="283" y="444" type="line" smooth="yes"/>
      <point x="283" y="493"/>
      <point x="297" y="532"/>
      <point x="307" y="572" type="curve" smooth="yes"/>
      <point x="315" y="605"/>
      <point x="329" y="637"/>
      <point x="329" y="667" type="curve" smooth="yes"/>
      <point x="329" y="705"/>
      <point x="299" y="719"/>
      <point x="271" y="719" type="curve" smooth="yes"/>
      <point x="245" y="719"/>
      <point x="214" y="705"/>
      <point x="214" y="667" type="curve" smooth="yes"/>
      <point x="214" y="637"/>
      <point x="228" y="605"/>
      <point x="237" y="572" type="curve" smooth="yes"/>
      <point x="248" y="532"/>
      <point x="259" y="493"/>
      <point x="259" y="444" type="curve" smooth="yes"/>
      <point x="259" y="439" type="line"/>
      <point x="251" y="439" type="line" smooth="yes"/>
      <point x="212" y="439"/>
      <point x="179" y="451"/>
      <point x="149" y="462" type="curve" smooth="yes"/>
      <point x="121" y="472"/>
      <point x="94" y="483"/>
      <point x="69" y="483" type="curve" smooth="yes"/>
      <point x="37" y="483"/>
      <point x="25" y="445"/>
      <point x="25" y="427" type="curve" smooth="yes"/>
      <point x="25" y="411"/>
      <point x="37" y="372"/>
      <point x="69" y="372" type="curve" smooth="yes"/>
      <point x="94" y="372"/>
      <point x="122" y="384"/>
      <point x="149" y="394" type="curve" smooth="yes"/>
      <point x="180" y="405"/>
      <point x="212" y="417"/>
      <point x="251" y="417" type="curve" smooth="yes"/>
      <point x="259" y="417" type="line"/>
      <point x="258" y="322"/>
      <point x="203" y="267"/>
      <point x="186" y="253" type="curve"/>
      <point x="203" y="239"/>
      <point x="258" y="184"/>
      <point x="259" y="89" type="curve"/>
      <point x="251" y="89" type="line" smooth="yes"/>
      <point x="213" y="89"/>
      <point x="180" y="101"/>
      <point x="149" y="112" type="curve" smooth="yes"/>
      <point x="122" y="122"/>
      <point x="94" y="134"/>
      <point x="69" y="134" type="curve" smooth="yes"/>
      <point x="37" y="134"/>
      <point x="25" y="95"/>
      <point x="25" y="79" type="curve" smooth="yes"/>
      <point x="25" y="61"/>
      <point x="37" y="23"/>
      <point x="69" y="23" type="curve" smooth="yes"/>
      <point x="94" y="23"/>
      <point x="121" y="34"/>
      <point x="149" y="44" type="curve" smooth="yes"/>
      <point x="179" y="55"/>
      <point x="212" y="67"/>
      <point x="251" y="67" type="curve" smooth="yes"/>
      <point x="259" y="67" type="line"/>
      <point x="259" y="54" type="line"/>
      <point x="259" y="9"/>
      <point x="247" y="-28"/>
      <point x="237" y="-66" type="curve" smooth="yes"/>
      <point x="228" y="-99"/>
      <point x="214" y="-131"/>
      <point x="214" y="-161" type="curve" smooth="yes"/>
      <point x="214" y="-199"/>
      <point x="245" y="-213"/>
    </contour>
  </outline>
</glyph>
<glyph name="guilsinglleft" format="2">
  <advance width="213"/>
  <unicode hex="2039"/>
  <outline>
    <contour>
      <point x="117" y="204" type="line"/>
      <point x="188" y="337" type="line"/>
      <point x="160" y="357" type="line"/>
      <point x="15" y="206" type="line"/>
      <point x="15" y="200" type="line"/>
      <point x="160" y="49" type="line"/>
      <point x="188" y="69" type="line"/>
    </contour>
  </outline>
</glyph>
<glyph name="fraction" format="2">
  <advance width="429"/>
  <unicode hex="2044"/>
  <outline>
    <contour>
      <point x="404" y="673" type="line"/>
      <point x="-40" y="0" type="line"/>
      <point x="26" y="0" type="line"/>
      <point x="469" y="673" type="line"/>
    </contour>
  </outline>
</glyph>
<glyph name="foursuperior" format="2">
  <advance width="321"/>
  <unicode hex="2074"/>
  <outline>
    <contour>
      <point x="104" y="349" type="line"/>
      <point x="286" y="349" type="line"/>
      <point x="286" y="367" type="line"/>
      <point x="259" y="373" type="line" smooth="yes"/>
      <point x="237" y="378"/>
      <point x="233" y="384"/>
      <point x="233" y="406" type="curve" smooth="yes"/>
      <point x="233" y="689" type="line"/>
      <point x="211" y="689" type="line"/>
      <point x="6" y="454" type="line"/>
      <point x="6" y="423" type="line"/>
      <point x="273" y="423" type="line"/>
      <point x="295" y="508" type="line"/>
      <point x="283" y="508" type="line"/>
      <point x="274" y="488" type="line" smooth="yes"/>
      <point x="269" y="476"/>
      <point x="258" y="470"/>
      <point x="248" y="470" type="curve" smooth="yes"/>
      <point x="40" y="470" type="line"/>
      <point x="40" y="459" type="line"/>
      <point x="168" y="602" type="line"/>
      <point x="157" y="606" type="line"/>
      <point x="157" y="406" type="line" smooth="yes"/>
      <point x="157" y="386"/>
      <point x="153" y="378"/>
      <point x="131" y="373" type="curve" smooth="yes"/>
      <point x="104" y="367" type="line"/>
    </contour>
  </outline>
</glyph>
<glyph name="integral" format="2">
  <advance width="399"/>
  <unicode hex="222B"/>
  <outline>
    <contour>
      <point x="121" y="-219" type="curve" smooth="yes"/>
      <point x="225" y="-219"/>
      <point x="286" y="-111"/>
      <point x="286" y="28" type="curve" smooth="yes"/>
      <point x="286" y="120"/>
      <point x="253" y="219"/>
      <point x="233" y="312" type="curve" smooth="yes"/>
      <point x="210" y="418"/>
      <point x="200" y="490"/>
      <point x="200" y="557" type="curve" smooth="yes"/>
      <point x="200" y="656"/>
      <point x="222" y="678"/>
      <point x="243" y="678" type="curve" smooth="yes"/>
      <point x="262" y="678"/>
      <point x="274" y="666"/>
      <point x="287" y="638" type="curve" smooth="yes"/>
      <point x="301" y="610"/>
      <point x="315" y="587"/>
      <point x="341" y="587" type="curve" smooth="yes"/>
      <point x="368" y="587"/>
      <point x="384" y="601"/>
      <point x="384" y="631" type="curve" smooth="yes"/>
      <point x="384" y="678"/>
      <point x="322" y="711"/>
      <point x="247" y="711" type="curve" smooth="yes"/>
      <point x="143" y="711"/>
      <point x="81" y="604"/>
      <point x="81" y="465" type="curve" smooth="yes"/>
      <point x="81" y="373"/>
      <point x="114" y="274"/>
      <point x="134" y="181" type="curve" smooth="yes"/>
      <point x="157" y="75"/>
      <point x="175" y="-9"/>
      <point x="175" y="-58" type="curve" smooth="yes"/>
      <point x="175" y="-145"/>
      <point x="164" y="-167"/>
      <point x="137" y="-167" type="curve" smooth="yes"/>
      <point x="122" y="-167"/>
      <point x="112" y="-160"/>
      <point x="98" y="-134" type="curve" smooth="yes"/>
      <point x="87" y="-114"/>
      <point x="75" y="-92"/>
      <point x="50" y="-92" type="curve" smooth="yes"/>
      <point x="20" y="-92"/>
      <point x="5" y="-112"/>
      <point x="5" y="-139" type="curve" smooth="yes"/>
      <point x="5" y="-183"/>
      <point x="62" y="-219"/>
    </contour>
  </outline>
</glyph>
<glyph name="greaterequal" format="2">
  <advance width="600"/>
  <unicode hex="2265"/>
  <outline>
    <contour>
      <point x="68" y="177" type="line"/>
      <point x="493" y="343" type="line"/>
      <point x="492" y="375" type="line"/>
      <point x="72" y="540" type="line"/>
      <point x="72" y="479" type="line"/>
      <point x="428" y="349" type="line"/>
      <point x="428" y="369" type="line"/>
      <point x="68" y="239" type="line"/>
    </contour>
    <component base="minus" xOffset="-8" yOffset="-204"/>
  </outline>
</glyph>
<glyph name="a.sc" format="2">
  <advance width="679"/>
  <anchor x="332" y="566" name="top"/>
  <outline>
    <contour>
      <point x="16" y="0" type="line"/>
      <point x="240" y="0" type="line"/>
      <point x="240" y="19" type="line"/>
      <point x="163" y="32" type="line" smooth="yes"/>
      <point x="145" y="35"/>
      <point x="139" y="44"/>
      <point x="139" y="53" type="curve" smooth="yes"/>
      <point x="139" y="55"/>
      <point x="139" y="57"/>
      <point x="140" y="59" type="curve" smooth="yes"/>
      <point x="303" y="430" type="line"/>
      <point x="285" y="430" type="line"/>
      <point x="435" y="68" type="line" smooth="yes"/>
      <point x="437" y="64"/>
      <point x="438" y="60"/>
      <point x="438" y="56" type="curve" smooth="yes"/>
      <point x="438" y="42"/>
      <point x="426" y="33"/>
      <point x="404" y="28" type="curve" smooth="yes"/>
      <point x="361" y="19" type="line"/>
      <point x="361" y="0" type="line"/>
      <point x="663" y="0" type="line"/>
      <point x="663" y="19" type="line"/>
      <point x="617" y="29" type="line" smooth="yes"/>
      <point x="592" y="34"/>
      <point x="583" y="37"/>
      <point x="581" y="41" type="curve" smooth="yes"/>
      <point x="354" y="572" type="line"/>
      <point x="342" y="572" type="line"/>
      <point x="342" y="555"/>
      <point x="310" y="522"/>
      <point x="252" y="521" type="curve"/>
      <point x="280" y="453" type="line"/>
      <point x="106" y="60" type="line" smooth="yes"/>
      <point x="99" y="45"/>
      <point x="90" y="36"/>
      <point x="68" y="31" type="curve" smooth="yes"/>
      <point x="16" y="19" type="line"/>
    </contour>
    <contour>
      <point x="194" y="185" type="line"/>
      <point x="436" y="185" type="line"/>
      <point x="436" y="212" type="line"/>
      <point x="195" y="212" type="line"/>
    </contour>
  </outline>
</glyph>
<glyph name="c_t" format="2">
  <advance width="811"/>
  <anchor x="487" y="0" name="caret_1"/>
  <outline>
    <contour>
      <point x="425" y="322" type="line"/>
      <point x="425" y="456"/>
      <point x="285" y="417"/>
      <point x="285" y="542" type="curve" smooth="yes"/>
      <point x="285" y="646"/>
      <point x="338" y="691"/>
      <point x="416" y="691" type="curve" smooth="yes"/>
      <point x="510" y="691"/>
      <point x="539" y="628"/>
      <point x="539" y="525" type="curve" smooth="yes"/>
      <point x="539" y="349" type="line"/>
      <point x="654" y="408" type="line"/>
      <point x="654" y="525" type="line"/>
      <point x="654" y="660"/>
      <point x="550" y="713"/>
      <point x="415" y="713" type="curve" smooth="yes"/>
      <point x="288" y="713"/>
      <point x="173" y="661"/>
      <point x="173" y="555" type="curve" smooth="yes"/>
      <point x="173" y="480"/>
      <point x="255" y="447"/>
      <point x="335" y="426" type="curve"/>
    </contour>
    <component base="c"/>
    <component base="t" xOffset="453"/>
  </outline>
</glyph>
<glyph name="f.sc" format="2">
  <advance width="575"/>
  <outline>
    <contour>
      <point x="36" y="0" type="line"/>
      <point x="342" y="0" type="line"/>
      <point x="341" y="19" type="line"/>
      <point x="294" y="28" type="line" smooth="yes"/>
      <point x="257" y="35"/>
      <point x="250" y="42"/>
      <point x="250" y="76" type="curve" smooth="yes"/>
      <point x="250" y="261" type="line"/>
      <point x="360" y="261" type="line" smooth="yes"/>
      <point x="415" y="261"/>
      <point x="430" y="233"/>
      <point x="436" y="202" type="curve" smooth="yes"/>
      <point x="444" y="162" type="line"/>
      <point x="464" y="161" type="line"/>
      <point x="464" y="389" type="line"/>
      <point x="444" y="389" type="line"/>
      <point x="437" y="351" type="line" smooth="yes"/>
      <point x="431" y="318"/>
      <point x="416" y="289"/>
      <point x="357" y="289" type="curve" smooth="yes"/>
      <point x="250" y="289" type="line"/>
      <point x="250" y="523" type="line"/>
      <point x="352" y="523" type="line" smooth="yes"/>
      <point x="427" y="523"/>
      <point x="481" y="476"/>
      <point x="512" y="407" type="curve"/>
      <point x="531" y="407" type="line"/>
      <point x="525" y="445"/>
      <point x="519" y="475"/>
      <point x="519" y="507" type="curve" smooth="yes"/>
      <point x="519" y="522"/>
      <point x="519" y="536"/>
      <point x="523" y="552" type="curve"/>
      <point x="36" y="552" type="line"/>
      <point x="36" y="533" type="line"/>
      <point x="77" y="524" type="line" smooth="yes"/>
      <point x="115" y="516"/>
      <point x="121" y="510"/>
      <point x="121" y="476" type="curve" smooth="yes"/>
      <point x="121" y="76" type="line" smooth="yes"/>
      <point x="121" y="42"/>
      <point x="115" y="36"/>
      <point x="77" y="28" type="curve" smooth="yes"/>
      <point x="36" y="19" type="line"/>
    </contour>
  </outline>
</glyph>
<glyph name="lslash.sc" format="2">
  <advance width="619"/>
  <guideline x="36" y="285" angle="90"/>
  <outline>
    <contour>
      <point x="36" y="169" type="line"/>
      <point x="483" y="305" type="line"/>
      <point x="483" y="354" type="line"/>
      <point x="36" y="218" type="line"/>
    </contour>
    <component base="l.sc"/>
  </outline>
</glyph>
<glyph name="m.sc" format="2">
  <advance width="873"/>
  <outline>
    <contour>
      <point x="397" y="-4" type="line"/>
      <point x="411" y="-4" type="line"/>
      <point x="602" y="458" type="line"/>
      <point x="623" y="81" type="line" smooth="yes"/>
      <point x="626" y="42"/>
      <point x="616" y="38"/>
      <point x="573" y="28" type="curve" smooth="yes"/>
      <point x="533" y="19" type="line"/>
      <point x="534" y="0" type="line"/>
      <point x="837" y="0" type="line"/>
      <point x="837" y="19" type="line"/>
      <point x="795" y="28" type="line" smooth="yes"/>
      <point x="758" y="36"/>
      <point x="753" y="42"/>
      <point x="751" y="76" type="curve" smooth="yes"/>
      <point x="733" y="478" type="line" smooth="yes"/>
      <point x="732" y="511"/>
      <point x="740" y="516"/>
      <point x="777" y="524" type="curve" smooth="yes"/>
      <point x="818" y="533" type="line"/>
      <point x="819" y="552" type="line"/>
      <point x="606" y="552" type="line"/>
      <point x="453" y="184" type="line"/>
      <point x="276" y="551" type="line"/>
      <point x="68" y="552" type="line"/>
      <point x="67" y="533" type="line"/>
      <point x="112" y="523" type="line" smooth="yes"/>
      <point x="150" y="515"/>
      <point x="160" y="511"/>
      <point x="157" y="477" type="curve" smooth="yes"/>
      <point x="129" y="76" type="line" smooth="yes"/>
      <point x="128" y="48"/>
      <point x="112" y="36"/>
      <point x="85" y="30" type="curve" smooth="yes"/>
      <point x="37" y="19" type="line"/>
      <point x="37" y="0" type="line"/>
      <point x="270" y="0" type="line"/>
      <point x="270" y="19" type="line"/>
      <point x="205" y="32" type="line" smooth="yes"/>
      <point x="179" y="37"/>
      <point x="160" y="51"/>
      <point x="161" y="76" type="curve" smooth="yes"/>
      <point x="187" y="430" type="line"/>
    </contour>
  </outline>
</glyph>
<glyph name="t.sc" format="2">
  <advance width="625"/>
  <anchor x="304" y="566" name="top"/>
  <outline>
    <contour>
      <point x="163" y="0" type="line"/>
      <point x="462" y="0" type="line"/>
      <point x="462" y="19" type="line"/>
      <point x="420" y="28" type="line" smooth="yes"/>
      <point x="383" y="36"/>
      <point x="377" y="42"/>
      <point x="377" y="76" type="curve" smooth="yes"/>
      <point x="377" y="523" type="line"/>
      <point x="435" y="523" type="line" smooth="yes"/>
      <point x="507" y="523"/>
      <point x="563" y="459"/>
      <point x="581" y="386" type="curve"/>
      <point x="605" y="386" type="line"/>
      <point x="596" y="425"/>
      <point x="586" y="502"/>
      <point x="595" y="552" type="curve"/>
      <point x="31" y="552" type="line"/>
      <point x="39" y="502"/>
      <point x="29" y="425"/>
      <point x="20" y="386" type="curve"/>
      <point x="44" y="386" type="line"/>
      <point x="62" y="459"/>
      <point x="119" y="523"/>
      <point x="190" y="523" type="curve"/>
      <point x="248" y="523" type="line"/>
      <point x="248" y="76" type="line" smooth="yes"/>
      <point x="248" y="42"/>
      <point x="242" y="36"/>
      <point x="204" y="28" type="curve" smooth="yes"/>
      <point x="162" y="19" type="line"/>
    </contour>
  </outline>
</glyph>
<glyph name="tbar.sc" format="2">
  <advance width="625"/>
  <outline>
    <contour>
      <point x="150" y="254" type="line"/>
      <point x="476" y="254" type="line"/>
      <point x="476" y="302" type="line"/>
      <point x="150" y="302" type="line"/>
    </contour>
    <component base="t.sc"/>
  </outline>
</glyph>
<glyph name="tilde.sc" format="2">
  <advance width="570"/>
  <anchor x="285" y="552" name="_top"/>
  <outline>
    <contour>
      <point x="1" y="622" type="line"/>
      <point x="117" y="622" type="line"/>
      <point x="119" y="663"/>
      <point x="184" y="714"/>
      <point x="285" y="714" type="curve" smooth="yes"/>
      <point x="386" y="714"/>
      <point x="451" y="663"/>
      <point x="453" y="622" type="curve"/>
      <point x="569" y="622" type="line"/>
      <point x="569" y="635" type="line"/>
      <point x="559" y="635" type="line" smooth="yes"/>
      <point x="493" y="635"/>
      <point x="478" y="641"/>
      <point x="470" y="671" type="curve" smooth="yes"/>
      <point x="454" y="725"/>
      <point x="382" y="783"/>
      <point x="285" y="783" type="curve" smooth="yes"/>
      <point x="187" y="783"/>
      <point x="116" y="725"/>
      <point x="100" y="670" type="curve" smooth="yes"/>
      <point x="92" y="642"/>
      <point x="77" y="635"/>
      <point x="11" y="635" type="curve" smooth="yes"/>
      <point x="1" y="635" type="line"/>
    </contour>
  </outline>
</glyph>
<glyph name="v.sc" format="2">
  <advance width="691"/>
  <outline>
    <contour>
      <point x="315" y="-12" type="line"/>
      <point x="364" y="-12" type="line"/>
      <point x="579" y="499" type="line" smooth="yes"/>
      <point x="584" y="512"/>
      <point x="598" y="518"/>
      <point x="617" y="522" type="curve" smooth="yes"/>
      <point x="675" y="533" type="line"/>
      <point x="675" y="552" type="line"/>
      <point x="432" y="552" type="line"/>
      <point x="432" y="532" type="line"/>
      <point x="501" y="517" type="line" smooth="yes"/>
      <point x="523" y="512"/>
      <point x="536" y="505"/>
      <point x="536" y="491" type="curve" smooth="yes"/>
      <point x="536" y="488"/>
      <point x="536" y="485"/>
      <point x="535" y="482" type="curve" smooth="yes"/>
      <point x="373" y="99" type="line"/>
      <point x="398" y="99" type="line"/>
      <point x="250" y="480" type="line" smooth="yes"/>
      <point x="248" y="485"/>
      <point x="248" y="489"/>
      <point x="248" y="493" type="curve" smooth="yes"/>
      <point x="248" y="508"/>
      <point x="259" y="517"/>
      <point x="287" y="523" type="curve" smooth="yes"/>
      <point x="331" y="532" type="line"/>
      <point x="331" y="552" type="line"/>
      <point x="16" y="552" type="line"/>
      <point x="16" y="532" type="line"/>
      <point x="66" y="522" type="line" smooth="yes"/>
      <point x="73" y="520"/>
      <point x="86" y="517"/>
      <point x="88" y="512" type="curve" smooth="yes"/>
    </contour>
  </outline>
</glyph>
<glyph name="z.sc" format="2">
  <advance width="589"/>
  <anchor x="304" y="566" name="top"/>
  <outline>
    <contour>
      <point x="32" y="0" type="line"/>
      <point x="543" y="0" type="line"/>
      <point x="543" y="58"/>
      <point x="552" y="111"/>
      <point x="566" y="171" type="curve"/>
      <point x="547" y="171" type="line"/>
      <point x="516" y="89"/>
      <point x="439" y="29"/>
      <point x="340" y="29" type="curve" smooth="yes"/>
      <point x="195" y="29" type="line"/>
      <point x="544" y="532" type="line"/>
      <point x="544" y="552" type="line"/>
      <point x="70" y="552" type="line"/>
      <point x="72" y="535"/>
      <point x="74" y="520"/>
      <point x="74" y="504" type="curve" smooth="yes"/>
      <point x="74" y="464"/>
      <point x="69" y="420"/>
      <point x="61" y="382" type="curve"/>
      <point x="79" y="382" type="line"/>
      <point x="118" y="480"/>
      <point x="167" y="523"/>
      <point x="267" y="523" type="curve" smooth="yes"/>
      <point x="385" y="523" type="line"/>
      <point x="32" y="16" type="line"/>
    </contour>
  </outline>
</glyph>
